<!--?xml version="1.0" encoding="utf-8"?-->
<!-- Generator: Adobe Illustrator 22.1.0, SVG Export Plug-In . SVG Version: 6.00 Build 0)  -->
<svg version="1.1" id="_x33_" xmlns="http://www.w3.org/2000/svg" xmlns:xlink="http://www.w3.org/1999/xlink" x="0px" y="0px" viewBox="0 0 800 761.8" style="enable-background:new 0 0 800 761.8;" xml:space="preserve">
<style type="text/css">
	.stblack{fill:#000000;}
	.st0{fill:#FFFFFF;}
</style>
<g>
	<path class="stblack" d="M396.5,742.8c-8.2,0-16.2-3.4-21.9-9.3c-5.8-6-8.7-13.9-8.4-22.2l1.6-41.5c0.5-11.9-8.5-22.3-20.4-23.8
		c-88.2-10.5-169.5-44.2-228.7-95C54.1,495.7,20,425.2,20,347.1c0-89.3,33-170.8,92.8-229.4C178.7,53.2,273.5,19,387,19
		c58.2,0,112.9,8.9,162.6,26.4c47.2,16.7,88.9,40.8,123.9,71.6c68.7,60.5,106.5,142.2,106.5,230c0,90.4-46.5,175.8-138.2,253.7
		C566,665.3,473.1,712.3,408.5,740.3C404.7,741.9,400.6,742.8,396.5,742.8z" style="stroke: rgb(0, 0, 0); stroke-width: 24px;"></path>
	<path class="st0" d="M762.3,347.1c0,194.2-231.5,320.9-360.8,377c-8.5,3.7-18-2.8-17.6-12.1l1.6-41.5c0.8-21.3-14.9-39.5-36-42
		c-169-20-311.8-128.4-311.8-281.4C37.7,182.9,154.6,36.7,387,36.7C619.4,36.7,762.3,182.9,762.3,347.1z"></path>
</g>
</svg>
